<svg id="efsC3yK7Ndu1" xmlns="http://www.w3.org/2000/svg" xmlns:xlink="http://www.w3.org/1999/xlink" viewBox="0 0 590.55 373.37" shape-rendering="geometricPrecision" text-rendering="geometricPrecision">
<style><![CDATA[
#efsC3yK7Ndu6 {animation: efsC3yK7Ndu6_c_o 6000ms linear infinite normal forwards}@keyframes efsC3yK7Ndu6_c_o { 0% {opacity: 1} 33.333333% {opacity: 0} 66.666667% {opacity: 0} 100% {opacity: 1}} #efsC3yK7Ndu7 {animation: efsC3yK7Ndu7_c_o 6000ms linear infinite normal forwards}@keyframes efsC3yK7Ndu7_c_o { 0% {opacity: 0} 33.333333% {opacity: 1} 66.666667% {opacity: 0} 100% {opacity: 0}} #efsC3yK7Ndu8 {animation: efsC3yK7Ndu8_c_o 6000ms linear infinite normal forwards}@keyframes efsC3yK7Ndu8_c_o { 0% {opacity: 0} 33.333333% {opacity: 0} 66.666667% {opacity: 1} 100% {opacity: 0}} #efsC3yK7Ndu9_tr {animation: efsC3yK7Ndu9_tr__tr 6000ms linear infinite normal forwards}@keyframes efsC3yK7Ndu9_tr__tr { 0% {transform: translate(21.76848px,42.110003px) rotate(0deg)} 100% {transform: translate(21.76848px,42.110003px) rotate(44.999999deg)}} #efsC3yK7Ndu18_tr {animation: efsC3yK7Ndu18_tr__tr 6000ms linear infinite normal forwards}@keyframes efsC3yK7Ndu18_tr__tr { 0% {transform: translate(19.8024px,315.619995px) rotate(0deg)} 100% {transform: translate(19.8024px,315.619995px) rotate(45deg)}} #efsC3yK7Ndu27_tr {animation: efsC3yK7Ndu27_tr__tr 6000ms linear infinite normal forwards}@keyframes efsC3yK7Ndu27_tr__tr { 0% {transform: translate(344.708863px,151.384995px) rotate(0deg)} 100% {transform: translate(344.708863px,151.384995px) rotate(45deg)}} #efsC3yK7Ndu38 {animation: efsC3yK7Ndu38_c_o 6000ms linear infinite normal forwards}@keyframes efsC3yK7Ndu38_c_o { 0% {opacity: 0} 25% {opacity: 1} 50% {opacity: 0} 75% {opacity: 1} 100% {opacity: 0}} #efsC3yK7Ndu39 {animation: efsC3yK7Ndu39_c_o 6000ms linear infinite normal forwards}@keyframes efsC3yK7Ndu39_c_o { 0% {opacity: 1} 25% {opacity: 0} 50% {opacity: 1} 75% {opacity: 0} 100% {opacity: 1}} #efsC3yK7Ndu40 {animation: efsC3yK7Ndu40_c_o 6000ms linear infinite normal forwards}@keyframes efsC3yK7Ndu40_c_o { 0% {opacity: 0} 25% {opacity: 1} 50% {opacity: 0} 75% {opacity: 1} 100% {opacity: 0}} #efsC3yK7Ndu42_to {animation: efsC3yK7Ndu42_to__to 6000ms linear infinite normal forwards}@keyframes efsC3yK7Ndu42_to__to { 0% {transform: translate(119.055px,122.424999px)} 33.333333% {transform: translate(119.055px,139.264535px)} 66.666667% {transform: translate(142.415px,139.264535px)} 100% {transform: translate(142.415px,122.264535px)}} #efsC3yK7Ndu43_to {animation: efsC3yK7Ndu43_to__to 6000ms linear infinite normal forwards}@keyframes efsC3yK7Ndu43_to__to { 0% {transform: translate(142.415001px,122.424999px)} 33.333333% {transform: translate(142.415001px,122.424999px)} 66.666667% {transform: translate(118.975001px,122.424999px)} 100% {transform: translate(118.975001px,122.424999px)}} #efsC3yK7Ndu51_to {animation: efsC3yK7Ndu51_to__to 6000ms linear infinite normal forwards}@keyframes efsC3yK7Ndu51_to__to { 0% {transform: translate(58.923523px,241.133593px)} 5% {transform: translate(42.400002px,218.107807px)} 10% {transform: translate(32.895382px,189.217809px)} 15% {transform: translate(30.162617px,159.362252px)} 20% {transform: translate(32.41175px,126.967532px)} 25% {transform: translate(44.12191px,102.511681px)} 30% {transform: translate(62.72691px,78.8234px)} 35% {transform: translate(83.148093px,62.288316px)} 40% {transform: translate(109.060002px,51.308431px)} 45% {transform: translate(138.598093px,47.275081px)} 50% {transform: translate(170.318093px,51.425044px)} 55% {transform: translate(196.230002px,59.652926px)} 60% {transform: translate(220.725002px,74.981471px)} 65% {transform: translate(239.37191px,91.235684px)} 70% {transform: translate(261.108093px,106.816514px)} 75% {transform: translate(287.438238px,118.308987px)} 80% {transform: translate(316.985818px,121.016157px)} 85% {transform: translate(343.650002px,116.465713px)} 90% {transform: translate(369.241897px,104.725002px)} 95% {transform: translate(397.833469px,87.130002px)} 100% {transform: translate(418.833469px,66.130002px)}} #efsC3yK7Ndu51_tr {animation: efsC3yK7Ndu51_tr__tr 6000ms linear infinite normal forwards}@keyframes efsC3yK7Ndu51_tr__tr { 0% {transform: rotate(-40.919681deg)} 5% {transform: rotate(-36.778516deg)} 10% {transform: rotate(-28.963348deg)} 15% {transform: rotate(-16.536263deg)} 20% {transform: rotate(6.888562deg)} 25% {transform: rotate(21.392644deg)} 30% {transform: rotate(36.276947deg)} 35% {transform: rotate(49.778494deg)} 40% {transform: rotate(62.888237deg)} 45% {transform: rotate(78.648736deg)} 50% {transform: rotate(93.637907deg)} 55% {transform: rotate(105.073273deg)} 60% {transform: rotate(118.326324deg)} 65% {transform: rotate(106.026805deg)} 70% {transform: rotate(94.598469deg)} 75% {transform: rotate(78.805395deg)} 80% {transform: rotate(61.427861deg)} 85% {transform: rotate(47.692457deg)} 90% {transform: rotate(37.099102deg)} 100% {transform: rotate(37.099102deg)}} #efsC3yK7Ndu52 {animation: efsC3yK7Ndu52_c_o 6000ms linear infinite normal forwards}@keyframes efsC3yK7Ndu52_c_o { 0% {opacity: 1} 50% {opacity: 0.3} 100% {opacity: 1}} #efsC3yK7Ndu78_tr {animation: efsC3yK7Ndu78_tr__tr 6000ms linear infinite normal forwards}@keyframes efsC3yK7Ndu78_tr__tr { 0% {transform: translate(438.120514px,81.078789px) rotate(0deg);animation-timing-function: cubic-bezier(0.42,0,0.58,1)} 50% {transform: translate(438.120514px,81.078789px) rotate(3.668353deg);animation-timing-function: cubic-bezier(0.42,0,0.58,1)} 100% {transform: translate(438.120514px,81.078789px) rotate(0deg)}} #efsC3yK7Ndu96_tr {animation: efsC3yK7Ndu96_tr__tr 6000ms linear infinite normal forwards}@keyframes efsC3yK7Ndu96_tr__tr { 0% {transform: translate(508.474155px,298.614541px) rotate(0deg)} 50% {transform: translate(508.474155px,298.614541px) rotate(4.523602deg)} 100% {transform: translate(508.474155px,298.614541px) rotate(0deg)}} #efsC3yK7Ndu108_to {animation: efsC3yK7Ndu108_to__to 6000ms linear infinite normal forwards}@keyframes efsC3yK7Ndu108_to__to { 0% {transform: translate(473.682389px,286.290009px)} 50% {transform: translate(473.682389px,277.837463px)} 100% {transform: translate(473.682389px,286.290009px)}} #efsC3yK7Ndu108 {animation: efsC3yK7Ndu108_c_o 6000ms linear infinite normal forwards}@keyframes efsC3yK7Ndu108_c_o { 0% {opacity: 1} 50% {opacity: 0.2} 100% {opacity: 1}} #efsC3yK7Ndu111_tr {animation: efsC3yK7Ndu111_tr__tr 6000ms linear infinite normal forwards}@keyframes efsC3yK7Ndu111_tr__tr { 0% {transform: translate(279.055954px,24.87139px) rotate(0deg)} 100% {transform: translate(279.055954px,24.87139px) rotate(45deg)}} #efsC3yK7Ndu122 {animation: efsC3yK7Ndu122_c_o 6000ms linear infinite normal forwards}@keyframes efsC3yK7Ndu122_c_o { 0% {opacity: 0} 25% {opacity: 1} 50% {opacity: 0} 75% {opacity: 1} 100% {opacity: 0}} #efsC3yK7Ndu123 {animation: efsC3yK7Ndu123_c_o 6000ms linear infinite normal forwards}@keyframes efsC3yK7Ndu123_c_o { 0% {opacity: 1} 25% {opacity: 0} 50% {opacity: 1} 75% {opacity: 0} 100% {opacity: 1}} #efsC3yK7Ndu124 {animation: efsC3yK7Ndu124_c_o 6000ms linear infinite normal forwards}@keyframes efsC3yK7Ndu124_c_o { 0% {opacity: 0} 25% {opacity: 1} 50% {opacity: 0} 75% {opacity: 1} 100% {opacity: 0}} #efsC3yK7Ndu127 {animation: efsC3yK7Ndu127_c_o 6000ms linear infinite normal forwards}@keyframes efsC3yK7Ndu127_c_o { 0% {opacity: 0} 25% {opacity: 1} 50% {opacity: 0} 75% {opacity: 1} 100% {opacity: 0}} #efsC3yK7Ndu128 {animation: efsC3yK7Ndu128_c_o 6000ms linear infinite normal forwards}@keyframes efsC3yK7Ndu128_c_o { 0% {opacity: 1} 25% {opacity: 0} 50% {opacity: 1} 75% {opacity: 0} 100% {opacity: 1}} #efsC3yK7Ndu129 {animation: efsC3yK7Ndu129_c_o 6000ms linear infinite normal forwards}@keyframes efsC3yK7Ndu129_c_o { 0% {opacity: 0} 25% {opacity: 1} 50% {opacity: 0} 75% {opacity: 1} 100% {opacity: 0}} #efsC3yK7Ndu132 {animation: efsC3yK7Ndu132_c_o 6000ms linear infinite normal forwards}@keyframes efsC3yK7Ndu132_c_o { 0% {opacity: 0} 25% {opacity: 1} 50% {opacity: 0} 75% {opacity: 1} 100% {opacity: 0}} #efsC3yK7Ndu133 {animation: efsC3yK7Ndu133_c_o 6000ms linear infinite normal forwards}@keyframes efsC3yK7Ndu133_c_o { 0% {opacity: 1} 25% {opacity: 0} 50% {opacity: 1} 75% {opacity: 0} 100% {opacity: 1}} #efsC3yK7Ndu134 {animation: efsC3yK7Ndu134_c_o 6000ms linear infinite normal forwards}@keyframes efsC3yK7Ndu134_c_o { 0% {opacity: 0} 25% {opacity: 1} 50% {opacity: 0} 75% {opacity: 1} 100% {opacity: 0}}
]]></style>
<defs><linearGradient id="efsC3yK7Ndu52-fill" x1="100.16" y1="430.88" x2="246.35" y2="191.05" spreadMethod="pad" gradientUnits="userSpaceOnUse" gradientTransform="translate(0 0)"><stop id="efsC3yK7Ndu52-fill-0" offset="0%" stop-color="rgba(12,80,158,0.5)"/><stop id="efsC3yK7Ndu52-fill-1" offset="100%" stop-color="rgba(9,78,160,0)"/></linearGradient><linearGradient id="efsC3yK7Ndu53-fill" x1="284.79" y1="266.82" x2="311" y2="273.24" spreadMethod="pad" gradientUnits="userSpaceOnUse" gradientTransform="translate(0 0)"><stop id="efsC3yK7Ndu53-fill-0" offset="0%" stop-color="#0b54ac"/><stop id="efsC3yK7Ndu53-fill-1" offset="100%" stop-color="#094c9b"/></linearGradient><linearGradient id="efsC3yK7Ndu55-fill" x1="557.59" y1="68.5" x2="354.9" y2="403.86" spreadMethod="pad" gradientUnits="userSpaceOnUse" gradientTransform="translate(0 0)"><stop id="efsC3yK7Ndu55-fill-0" offset="0%" stop-color="#0b56af"/><stop id="efsC3yK7Ndu55-fill-1" offset="100%" stop-color="#094c9b"/></linearGradient><linearGradient id="efsC3yK7Ndu76-fill" x1="593.01" y1="361.82" x2="503.35" y2="180.03" spreadMethod="pad" gradientUnits="userSpaceOnUse" gradientTransform="translate(0 0)"><stop id="efsC3yK7Ndu76-fill-0" offset="0%" stop-color="#0b56af"/><stop id="efsC3yK7Ndu76-fill-1" offset="100%" stop-color="#094c9b"/></linearGradient><linearGradient id="efsC3yK7Ndu106-fill" x1="483.11" y1="363.05" x2="510.46" y2="194.61" spreadMethod="pad" gradientUnits="userSpaceOnUse" gradientTransform="translate(0 0)"><stop id="efsC3yK7Ndu106-fill-0" offset="0%" stop-color="#0b56af"/><stop id="efsC3yK7Ndu106-fill-1" offset="100%" stop-color="#094c9b"/></linearGradient></defs><g transform="translate(0-.000006)"><g><rect width="36.41" height="19.71" rx="3.46" ry="3.46" transform="translate(307.24 67.42)" fill="#d3e7ff"/><g><circle id="efsC3yK7Ndu6" r="2.78" transform="translate(316.41 77.27)" fill="#eef4fb"/><circle id="efsC3yK7Ndu7" r="2.78" transform="translate(325.33 77.27)" opacity="0" fill="#eef4fb"/><circle id="efsC3yK7Ndu8" r="2.78" transform="translate(334.24 77.27)" opacity="0" fill="#eef4fb"/></g><g id="efsC3yK7Ndu9_tr" transform="translate(21.76848,42.110003) rotate(0)"><g transform="translate(-21.76848,-42.110003)"><path d="M19.81,57.15c0-1.52,0-3,0-4.57-.007746-.981464.737057-1.805528,1.714304-1.896738s1.861684.580792,2.035696,1.546738c.00988.119797.00988.240203,0,.36q0,4.68,0,9.35c-.036082,1.011927-.848073,1.823918-1.86,1.86-1.027754-.015922-1.858597-.842345-1.88-1.87c0-1.59,0-3.19,0-4.78Z" fill="#d3e7ff"/><path d="M19.82,27c0-1.58,0-3.15,0-4.72.041821-1.021002.86846-1.83452,1.89-1.86c1.024101.01022,1.857879.826351,1.89,1.85c0,1.66,0,3.31,0,5c0,1.44,0,2.87,0,4.31.071154.698305-.250547,1.378527-.835467,1.766551s-1.336701.41993-1.952394.08286-.993872-.987588-.982139-1.689411c0-1.57,0-3.14,0-4.71Z" fill="#d3e7ff"/><path d="M16.15,34.69c.083349.761348-.355728,1.483569-1.07,1.76-.667399.32606-1.467654.198019-2-.32-.94-.9-1.86-1.83-2.79-2.75L6.55,29.67c-.333651-.314775-.572647-.716566-.69-1.16-.179549-.894004.297888-1.790245,1.14-2.14.699606-.273526,1.495451-.086503,2,.47c1.54,1.5,3,3,4.57,4.55.63.62,1.25,1.24,1.87,1.87.454291.333551.718891.866477.71,1.43Z" fill="#d3e7ff"/><path d="M29.13,36.6c-.739291.023571-1.421566-.39548-1.734836-1.065531s-.197318-1.4623.294836-2.014469c1.06-1.1,2.15-2.19,3.23-3.28s2.16-2.18,3.26-3.24c.264385-.263369.576648-.473807.92-.62.840714-.357199,1.814513-.003487,2.23.81.438789.703964.339676,1.616638-.24,2.21-.83.89-1.71,1.74-2.57,2.61L30.61,35.9c-.365024.441384-.907237.697836-1.48.7Z" fill="#d3e7ff"/><path d="M14.24,47.66c.74657-.04064,1.444209.372099,1.768036,1.046009s.210172,1.476491-.288036,2.033991q-1.6,1.65-3.23,3.26c-1.09,1.09-2.16,2.19-3.27,3.25-.29309.270498-.631614.487153-1,.64-.639004.248103-1.364905.072611-1.82-.44-.517676-.424648-.733771-1.11615-.55-1.76.093455-.384342.298775-.732343.59-1q3.19-3.21,6.41-6.41c.350528-.399781.858347-.62629,1.39-.62Z" fill="#d3e7ff"/><path d="M6.56,44L2,44c-.675232.014291-1.306796-.332736-1.656788-.910359s-.36524-1.298087-.04-1.89.941556-.96535,1.616788-.979641h8.31c.37,0,.75,0,1.12,0c.498613-.003222.976713.198268,1.322616.557402s.529312.844457.507384,1.342598c.022802.503496-.166536.993488-.521975,1.350828s-.844414.549289-1.348025.529172c-1.58,0-3.17,0-4.75,0Z" fill="#d3e7ff"/><path d="M36.83,44c-1.54,0-3.09,0-4.64,0-.706218.051472-1.381965-.296127-1.750777-.900587s-.368812-1.364367,0-1.968826s1.044559-.952059,1.750777-.900587h9.25c.706218-.051472,1.381965.296127,1.750777.900587s.368812,1.364367,0,1.968826-1.044559.952059-1.750777.900587c-1.34,0-2.68,0-4,0Z" fill="#d3e7ff"/><path d="M29.08,47.59c.586826.043842,1.132831.316845,1.52.76l4,4l2.34,2.33c.548919.507704.768795,1.279197.57,2-.247145.856822-1.073119,1.41309-1.96,1.32-.525669-.082634-1.008234-.339767-1.37-.73-1.6-1.64-3.18-3.27-4.83-4.85l-1.66-1.67c-.356219-.409699-.516802-.953984-.440023-1.491432s.383337-1.014998.840023-1.308568c.319666-.14671.650763-.267109.99-.36Z" fill="#d3e7ff"/></g></g><g id="efsC3yK7Ndu18_tr" transform="translate(19.8024,315.619995) rotate(0)"><g transform="translate(-19.8024,-315.619995)"><path d="M18.21,328.36c0-1.29,0-2.58,0-3.87.004737-.827234.635615-1.516252,1.459228-1.593708s1.57189.481862,1.730772,1.293708c0,.1,0,.21,0,.31c0,2.64,0,5.29,0,7.93c0,.883656-.716344,1.6-1.6,1.6s-1.6-.716344-1.6-1.6c0-1.35,0-2.7,0-4.06Z" fill="#d3e7ff"/><path d="M18.21,302.81v-4c0-.883656.716344-1.6,1.6-1.6s1.6.716344,1.6,1.6c0,1.4,0,2.81,0,4.21c0,1.22,0,2.44,0,3.66.035899.883656-.651344,1.629101-1.535,1.665s-1.629101-.651344-1.665-1.535c0-1.33,0-2.66,0-4Z" fill="#d3e7ff"/><path d="M15.1,309.31c.066672.644889-.305834,1.254817-.91,1.49-.572249.285989-1.262903.177572-1.72-.27-.8-.77-1.58-1.55-2.36-2.33L7,305.05c-.291225-.267657-.496545-.615658-.59-1-.150453-.768637.270535-1.534834,1-1.82.600662-.238226,1.286094-.078823,1.72.4c1.3,1.27,2.58,2.57,3.87,3.86l1.59,1.58c.351699.312872.539802.77022.51,1.24Z" fill="#d3e7ff"/><path d="M26.11,310.93c-.627291.021871-1.207326-.331978-1.474901-.899759s-.171263-1.240369.244901-1.710241c.91-.94,1.83-1.86,2.75-2.78s1.83-1.85,2.77-2.76c.223621-.222516.488592-.399163.78-.52.713507-.299444,1.537249.001286,1.89.69.370635.596946.283807,1.370131-.21,1.87-.71.76-1.45,1.48-2.18,2.21l-3.31,3.31c-.315813.368446-.774772.583355-1.26.59Z" fill="#d3e7ff"/><path d="M13.48,320.31c.634996-.034368,1.228009.317711,1.50184.89166s.17439,1.256398-.25184,1.72834c-.9.93-1.82,1.85-2.74,2.77s-1.83,1.85-2.77,2.76c-.243663.226252-.524422.408914-.83.54-.543096.21447-1.162333.066652-1.55-.37-.439016-.35897-.620253-.94602-.46-1.49.078021-.330406.247891-.632012.49-.87l5.45-5.43c.292707-.334927.715197-.527961,1.16-.53Z" fill="#d3e7ff"/><path d="M7,317.22h-3.95c-.889178.013807-1.621193-.695822-1.635-1.585s.695822-1.621193,1.585-1.635h8c.421696-.000316.825317.171197,1.117786.474988s.448538.713632.432214,1.135012c.02234.422067-.132067.834378-.42615,1.137948s-.701286.470985-1.12385.462052c-1.34,0-2.69,0-4,0Z" fill="#d3e7ff"/><path d="M32.65,317.22h-3.94c-.87442.05825-1.632988-.597774-1.701458-1.471453s.578639-1.639866,1.451458-1.718547h8.13c.571625,0,1.099828.304958,1.385641.8s.285812,1.104958,0,1.6-.814016.8-1.385641.8h-4Z" fill="#d3e7ff"/><path d="M26.07,320.25c.49764.042533.959703.275356,1.29.65l3.37,3.37c.66.66,1.32,1.32,2,2c.47914.436581.66236,1.110989.47,1.73-.21931.706049-.90411,1.161191-1.64,1.09-.449084-.067825-.861711-.286481-1.17-.62l-4.09-4.09-1.41-1.42c-.303578-.346985-.441597-.808657-.378277-1.265328s.321744-.863374.708277-1.114672c.274777-.130881.558891-.241184.85-.33Z" fill="#d3e7ff"/></g></g><g id="efsC3yK7Ndu27_tr" transform="translate(344.708863,151.384995) rotate(0)"><g transform="translate(-344.708862,-151.384995)"><path d="M343.33,162.58c0-1.14,0-2.27,0-3.41-.012882-.737555.544909-1.360379,1.279417-1.428583s1.397441.441266,1.520583,1.168583c.004963.089932.004963.180068,0,.27c0,2.33,0,4.65,0,7c0,.778721-.631279,1.41-1.41,1.41s-1.41-.631279-1.41-1.41v-3.57Z" fill="#d3e7ff"/><path d="M343.33,140.09c0-1.17,0-2.35,0-3.52.026394-.76421.645491-1.374525,1.41-1.39.765.005084,1.388467.615286,1.41,1.38c0,1.24,0,2.47,0,3.71c0,1.07,0,2.15,0,3.22.027528.375179-.100429.745171-.353857,1.023185s-.610025.439586-.986143.446815c-.378336.033767-.753394-.093414-1.033157-.35034s-.438347-.619823-.436843-.99966c0-1.17,0-2.35,0-3.52Z" fill="#d3e7ff"/><path d="M340.6,145.81c.057235.56665-.269764,1.102111-.8,1.31-.50621.250988-1.115748.154745-1.52-.24-.7-.67-1.39-1.36-2.08-2l-2.77-2.77c-.254434-.233111-.435179-.535511-.52-.87-.129695-.675574.240005-1.347756.88-1.6.524031-.208003,1.12214-.068444,1.5.35c1.15,1.13,2.28,2.26,3.42,3.4l1.39,1.4c.31308.246296.497084.621664.5,1.02Z" fill="#d3e7ff"/><path d="M350.29,147.23c-.549433.011686-1.054169-.301436-1.287752-.798882s-.152154-1.08581.207752-1.501118c.8-.82,1.61-1.63,2.42-2.45s1.61-1.62,2.43-2.42c.196966-.197882.431583-.354294.69-.46.624977-.269113,1.351514-.00651,1.66.6.33421.52766.259545,1.216241-.18,1.66-.62.66-1.27,1.3-1.92,1.94l-2.91,2.91c-.277459.325609-.682236.515234-1.11.52Z" fill="#d3e7ff"/><path d="M339.17,155.49c.557184-.029575,1.077354.279289,1.318092.782651s.154672,1.102166-.218092,1.517349c-.79.83-1.6,1.64-2.41,2.45s-1.61,1.63-2.44,2.42c-.213273.201608-.460379.364089-.73.48-.475577.189169-1.018671.061383-1.36-.32-.387345-.319087-.548402-.837613-.41-1.32.065197-.292485.218814-.557825.44-.76l4.79-4.78c.256417-.296291.628168-.467588,1.02-.47Z" fill="#d3e7ff"/><path d="M333.43,152.77h-3.43c-.397784.011852-.782286-.143761-1.059859-.428938s-.422738-.673744-.400141-1.071062c.061075-.73297.664707-1.302109,1.4-1.32h7.06c.371335-.000362.726669.15113.983516.419309s.392867.629718.376484,1.000691c.016734.368285-.120148.726994-.377974.990507s-.613464.408189-.982026.399493c-1.18,0-2.37,0-3.55,0Z" fill="#d3e7ff"/><path d="M356,152.77h-3.47c-.366064.013504-.722477-.119089-.990708-.368562s-.426269-.595357-.439292-.961438c-.048209-.738175.48619-1.386462,1.22-1.48h7.15c.503745,0,.969224.268744,1.221096.705s.251872.973744,0,1.41-.717351.705-1.221096.705h-3.47Z" fill="#d3e7ff"/><path d="M350.25,155.44c.438973.037.847016.241021,1.14.57l3,3c.58.59,1.16,1.17,1.75,1.74.429075.382795.593505.981791.42,1.53-.179411.63458-.782723,1.053546-1.44,1-.384168-.070009-.73515-.263049-1-.55l-3.6-3.6c-.42-.41-.83-.83-1.24-1.25-.268624-.303875-.391127-.70992-.335384-1.111656s.284172-.759087.625384-.978344c.216694-.135101.444127-.252162.68-.35Z" fill="#d3e7ff"/></g></g><g><rect width="27.62" height="19.42" rx="3.46" ry="3.46" transform="translate(227.99 131.81)" fill="#d3e7ff"/><rect id="efsC3yK7Ndu38" width="19.74" height="2.88" rx="0.84" ry="0.84" transform="translate(231.93 135.42)" opacity="0" fill="#eef4fb"/><rect id="efsC3yK7Ndu39" width="19.74" height="2.88" rx="0.84" ry="0.84" transform="translate(231.82 140.08)" fill="#eef4fb"/><rect id="efsC3yK7Ndu40" width="13.12" height="2.88" rx="0.84" ry="0.84" transform="translate(231.82 144.74)" opacity="0" fill="#eef4fb"/></g><g transform="translate(.000001 0)"><g id="efsC3yK7Ndu42_to" transform="translate(119.055,122.424999)"><rect width="19.99" height="14.05" rx="3.46" ry="3.46" transform="translate(-9.995,-7.024999)" fill="#d3e7ff"/></g><g id="efsC3yK7Ndu43_to" transform="translate(142.415001,122.424999)"><rect width="19.99" height="14.05" rx="3.46" ry="3.46" transform="translate(-9.995001,-7.024999)" fill="#d3e7ff"/></g><rect width="19.99" height="14.05" rx="3.46" ry="3.46" transform="translate(155.95 115.4)" fill="#d3e7ff"/><rect width="66.87" height="14.05" rx="3.46" ry="3.46" transform="translate(108.98 97.7)" fill="#d3e7ff"/><rect width="66.87" height="7.03" rx="3.36" ry="3.36" transform="translate(108.98 87.13)" fill="#d3e7ff"/></g><rect width="3.02" height="9.19" rx="0.89" ry="0.89" transform="translate(240.18 153.38)" fill="#d3e7ff"/><rect width="3.02" height="9.19" rx="0.89" ry="0.89" transform="matrix(0-1 1 0 216.13 175.93)" fill="#d3e7ff"/><rect width="3.02" height="9.19" rx="0.89" ry="0.89" transform="matrix(0-1 1 0 257.93 176.01)" fill="#d3e7ff"/><path d="M56.79,243.37c-2.492452-3.379561-4.80564-6.887729-6.93-10.51l2.65-1.59c2.073257,3.517914,4.322786,6.928922,6.74,10.22Zm-13-21.46c-1.88-3.72-3.65-7.53-5.26-11.34l2.86-1.2c1.57,3.74,3.31,7.49,5.16,11.14Zm-9.67-23c-1.33-4-2.5-8-3.47-12l3-.73c1,3.89,2.09,7.85,3.4,11.77Zm-5.88-24.32c-.609708-4.136927-1.006896-8.302395-1.19-12.48l3.09-.13c.181554,4.070691.572069,8.129371,1.17,12.16Zm2-24.82l-3.09-.21c.28631-4.181862.823948-8.342711,1.61-12.46l3,.58c-.72407,3.98097-1.211591,8.00135-1.46,12.04Zm4.59-23.89l-2.95-1c1.291508-3.988945,2.831179-7.893229,4.61-11.69l2.81,1.31c-1.705737,3.680622-3.178636,7.464737-4.41,11.33Zm278.52-4.33c-3.942243-.001341-7.881461-.218331-11.8-.65l.35-3.08c3.802025.423355,7.624479.637012,11.45.64h.72v3.1Zm13.27-.82l-.38-3.08c4.037675-.501325,8.04399-1.229139,12-2.18l.73,3c-4.05247.964218-8.155488,1.702027-12.29,2.21Zm-37.45-2c-4.080355-.94316-8.103562-2.118404-12.05-3.52l1-2.92c3.839203,1.362367,7.752061,2.507512,11.72,3.43Zm61.8-3.89l-1-2.91c3.78-1.36,7.58-2.94,11.28-4.7L362.6,110c-3.783393,1.803126-7.654934,3.415156-11.6,4.83Zm-85.43-4.44c-3.7-1.77-7.41-3.78-11-6l1.6-2.65c3.53,2.13,7.14,4.09,10.76,5.82Zm108-6.29l-1.59-2.66c3.45-2,6.89-4.32,10.23-6.72l1.81,2.51c-3.3,2.45-6.82,4.76-10.34,6.86Zm-328.48-.32l-2.63-1.63c2.212102-3.55129,4.615649-6.979683,7.2-10.27l2.44,1.91c-2.480714,3.198027-4.784172,6.529697-6.9,9.98Zm199-6.32c-3.29-2.41-6.57-5-9.76-7.82l2-2.34C239.58,90,242.8,92.6,246,95ZM394,89.52l-2-2.36c3.06-2.6,6.11-5.39,9.05-8.29l2.17,2.21c-3.05,2.92-6.15,5.79-9.22,8.44Zm-333.75-5L58,82.42c2.81-2.93,5.86-5.84,9.05-8.64l2,2.33c-3.12,2.74-6.05,5.58-8.85,8.45Zm165.23-3.48c-3.019075-2.729219-6.183707-5.292971-9.48-7.68l1.83-2.5c3.382892,2.467325,6.630899,5.114467,9.73,7.93ZM411.75,72l-2.32-2c2.67-3,5.31-6.2,7.84-9.46l2.44,1.9c-2.56,3.27-5.24,6.5-7.96,9.56ZM78.59,68.44l-1.82-2.51c3.398551-2.448889,6.937977-4.69609,10.6-6.73l1.51,2.7c-3.557941,1.971855-6.994137,4.155793-10.29,6.54Zm127.14-1.78c-3.48-2-7.13-4-10.83-5.68l1.3-2.81c3.8,1.77,7.53,3.72,11.1,5.82Zm-105.86-10l-1.16-2.87c3.880834-1.567048,7.851127-2.902723,11.89-4l.82,3c-3.921484,1.057997-7.778015,2.343507-11.55,3.85Zm83.7-.31c-3.83-1.37-7.77-2.57-11.7-3.57l.76-3c4,1,8.06,2.26,12,3.66Zm243.5-4l-2.56-1.76c2.28-3.32,4.52-6.8,6.67-10.33l2.64,1.6c-2.17,3.57-4.44,7.14-6.75,10.47Zm-267.18-2c-4-.63-8.14-1.07-12.16-1.29l.17-3.1c4.12.24,8.32.68,12.46,1.33Zm-36.54-.14l-.47-3.06c4.134075-.644072,8.300308-1.061363,12.48-1.25l.14,3.09c-4.067861.168663-8.123713.555888-12.15,1.16Z" fill="#d3e7ff"/><g id="efsC3yK7Ndu51_to" transform="translate(58.923523,241.133593)"><g id="efsC3yK7Ndu51_tr" transform="rotate(-40.919681)"><path d="M31.82,132.58c-.11.32-.23.64-.33,1-1.62,5.36-3.25,10.71-4.83,16.07-.14596.661671-.653017,1.184211-1.31,1.35-4.23,1.38-8.45,2.81-12.68,4.19-.420862.064686-.849138.064686-1.27,0c.060568-.425105.181802-.839323.36-1.23q9.31-14.72,18.67-29.4c1.11-1.75,2.2-3.5,3.33-5.23.248364-.278471.534471-.520821.85-.72.21.34.55.65.62,1q4,20.24,7.87,40.48c.003607.362885-.050398.724043-.16,1.07-.349184-.05438-.687034-.165871-1-.33-3.54-2.93-7.08-5.86-10.57-8.85-.368375-.387231-.566437-.905793-.55-1.44.41-5.62.88-11.23,1.33-16.84c0-.33,0-.67,0-1Z" transform="translate(-27.250083,-139.885002)" fill="#d3e7ff"/></g></g><polygon id="efsC3yK7Ndu52" points="42.4,218.11 201.07,84.33 378.85,281.22 289.96,361.66 42.4,218.11" fill="url(#efsC3yK7Ndu52-fill)"/><path d="M352,181.21c0,0-29.69,9-32.53,24.51C317.5,216.37,279,367.48,279,367.48h76.45l17.26-80.27Z" fill="url(#efsC3yK7Ndu53-fill)"/><path d="M479.81,136.25c0,0,39.78-2.24,41.35,18.13s-3,18.69-3,18.69-59.7-13.09-125.06-3.65c0,0-5.4-11.76,8-17.39s78.71-15.78,78.71-15.78Z" fill="#042143"/><path d="M408.79,167.84c0,0-60.23,7.39-69.39,22.16s9.6,177.48,9.6,177.48h172.62v-161.74l18.07-26.29-56.54-19.25Z" fill="url(#efsC3yK7Ndu55-fill)"/><line x1="339.59" y1="262.18" x2="348.9" y2="367.48" fill="none" stroke="#112e46" stroke-width="2" stroke-linecap="round" stroke-miterlimit="10"/><path d="M484.45,162.74v0c-3.52,2.48-8,5.81-12.91,9.57l-.15.1c-20.44,15.62-48.5,38.48-48.5,38.48-2.81-6.15-9.87-34.83-10.09-35.73v0l-3-22.95l72.94-29.3Z" fill="#e1c5b5"/><path d="M484.43,162.76c-.41.31-5.78,4.52-12.91,9.57c4.92-3.76,9.39-7.09,12.91-9.57Z" fill="#e1c5b5"/><path d="M422.37,213.1c0,0-7.35,45.9-8.2,87.25s1.42,52.06,1.42,52.06" fill="none" stroke="#112e46" stroke-width="2" stroke-linecap="round" stroke-miterlimit="10"/><path d="M421.87,216.35c0,0,51.5-5.22,90.51-47.53l-25.63-8.51c0,0-66.66,41.31-64.88,56.04Z" fill="#042143"/><path d="M385.13,171.07c0,0,13.15,37.07,36.74,45.28c0,0,3.14-3-3.69-22.4-7.33-20.84-6.49-27-6.49-27s-20.69,2.27-26.56,4.12Z" fill="#042143"/><rect width="243.9" height="11.63" rx="5.82" ry="5.82" transform="translate(161.47 355.3)" fill="#042143"/><path d="M291.53,367.55h-200.76c-4.44,0-9.11-3.63-10.38-8.07L41.61,223.13c-1.27-4.45,1.36-8.08,5.83-8.08h202.19c4.810348.24874,8.952812,3.476426,10.37,8.08l37.4,136.35c1.21,4.44-1.4,8.07-5.87,8.07Z" fill="#042143"/><polygon points="381.66,251.91 377.22,251.91 379.44,248.07 381.66,251.91" fill="#fff"/><path d="M383.53,257.35h-15c-.253014-.002467-.487228-.134038-.620967-.348832s-.148462-.483029-.039033-.711168v0l1.39-2.4l6.13-10.61c.129647-.228618.37218-.369896.635-.369896s.505353.141278.635.369896l.39.69l1,1.69-4.75,8.23h9.5l1.37,2.37c.122147.22746.116912.502138-.013813.724779s-.368038.361053-.626187.365221Z" fill="#fff"/><path d="M383.81,255.65h-.15-13.33c-.223082-.047529-.411781-.195278-.511434-.400446s-.099124-.444828.001434-.649554v0l1.51-2.66l5.38-9.31c.073258-.126786.208571-.204878.355-.204878s.281742.078092.355.204878l.42.74c.119445.210931.119445.469069,0,.68l-.36.63-4.19,7.26h1.11l-1.11,1.94h9.5Z" fill="#fff"/><g style="isolation:isolate"><g clip-path="url(#efsC3yK7Ndu73)"><g><polyline points="167.66,288.38 164.51,294.65 173.19,294.71 167.66,288.38" fill="#1b75bb"/><path d="M162.79,282.78l-5.95,11.84h2.18l-1.58,3.15l6.74-13.41-1.39-1.59m-3.38-2.93c-.458124-.033776-.895865.19478-1.13.59l-8.68,17.29-2,3.91v0c-.32.79.55,1.75,1.62,1.75l29.27.21c.457348.080342.913156-.149262,1.12082-.56459s.117863-.917737-.22082-1.23541L176,297.92l2.54,2.94c-.099752.009958-.200248.009958-.3,0l-25.73-.19c-.099707.010823-.200293.010823-.3,0-.93-.16-1.61-1-1.33-1.72v0l2.13-4.33l7.28-14.49c-.274451-.155866-.584381-.238514-.9-.24" fill="#1b75bb"/><path d="M161.28,279.09c-.255371-.017336-.498844.110198-.63.33l-.34.68L153,294.59l-2.13,4.33v0c-.28.72.4,1.56,1.33,1.72.099707.010823.200293.010823.3,0l25.73.19c.099752.009958.200248.009958.3,0L176,297.92l-18.56-.13l1.58-3.15h-2.18l5.95-11.84.51-1c.165712-.37789.082304-.818762-.21-1.11L162,279.43c-.18957-.215784-.462773-.339636-.75-.34" fill="#2886c6"/></g><clipPath id="efsC3yK7Ndu73"><polygon points="147.8,303.41 143.19,278.96 175.14,279.19 179.75,303.64 147.8,303.41" fill="none"/></clipPath></g></g><rect width="457.48" height="6.44" rx="3.22" ry="3.22" transform="translate(82.21 366.93)" fill="#042143"/><path d="M590.55,329c.049901,3.449257-.428989,6.885797-1.42,10.19l-76.78-34.46-14.5-75.19c0,0-2.34-37.15,37.44-51.49c0,0,25.38,6.62,28.86,19.24c2.9,10.55,26.4,112.84,26.4,131.71Z" fill="url(#efsC3yK7Ndu76-fill)"/><path d="M508.71,303.14l-9-49.76c-.099411-.552285.267715-1.080589.82-1.18s1.080589.267715,1.18.82l9.25,51.11Z" fill="#112e46"/><g id="efsC3yK7Ndu78_tr" transform="translate(438.120514,81.078789) rotate(0)"><g transform="translate(-438.120514,-81.078789)"><path d="M501.18,52.51c0,0,3.82,40.72-12.12,67.69c0,0-1.67,4.19-10.72,7.68s-9.34-20.95-9.34-20.95l-.06-49.64" fill="#042143"/><path d="M474,130.07l9.23-1.84c0,0,.14-20.85,1.87-24.22s-10.39,6.09-10.39,6.09Z" fill="#e1c5b5"/><path d="M377.61,52c-1.57556,17.701921.601871,35.537085,6.39,52.34s-5.1-45.51,7.13-51.28-13.52-1.06-13.52-1.06Z" fill="#042143"/><path d="M490.36,70.85c2.27,32.61-13.74,60.28-46.34,62.55-32.601369,2.272652-60.872348-22.313631-63.145001-54.914999s22.313631-60.872349,54.915001-63.145001c32.61-2.28,52.3,22.91,54.57,55.51Z" fill="#f0dbcb"/><path d="M380.87,78.48c3.25,46.64,14.8,63.56,25.12,73.46c12.32,11.81,29.46,20.48,64.59-16c2.57-2.67,5.15-5.74,6.39-9.24c5.61-15.83,18.24-42.18,16.4-58.95" fill="#f0dbcb"/><ellipse rx="4.13" ry="4.74" transform="matrix(.997588-.069408 0.069408 0.997588 397.504473 85.802768)" fill="#0b2242"/><ellipse rx="4.13" ry="4.74" transform="matrix(.997588-.069408 0.069408 0.997588 436.29134 82.05945)" fill="#0b2242"/><path d="M413.9,79.88c0,0-5.71,24.6-6,35.17s19.27,1.62,19.27,1.62-14.9,3.57-15.56-1.59.18-25.08,2.29-35.2Z" fill="#dabbaa"/><path d="M413.59,137.62c0,0,14.5,1.66,24.64-8.69" fill="none" stroke="#dabbaa" stroke-width="2" stroke-linecap="round" stroke-miterlimit="10"/><path d="M377.21,54.74c0,0,8.09-8,53.72-12.78c10.35-1.08,20.65,3.17,26,8.22c11.28,10.71,15.34,42.35,15.34,42.35l28.95-40c0,0-2.05-21.73-18-34.69-17.18-14-51-25.42-91.42-.12-.03-.02-20.32,15.7-14.59,37.02Z" fill="#042143"/><path d="M385.3,80.32c0,0,5.24-6.46,12.4-6.69" fill="none" stroke="#0b2242" stroke-width="3" stroke-linecap="round" stroke-miterlimit="10"/><path d="M446.37,74.81c0,0-6.08-5.67-13.21-4.9" fill="none" stroke="#0b2242" stroke-width="3" stroke-linecap="round" stroke-miterlimit="10"/><path d="M476.8,80.32c0,0,6.43-23.1,16.83-13.48s-1.63,31.16-6.25,33.16c-2.590238,1.003378-4.480162,3.271288-5,6L476.8,90.87c0,0-1.6-5.98,0-10.55Z" fill="#f0dbcb"/><path d="M468.89,9.71c0,0-56.29-29.59-91.31,14.55c0,0,7-6.57,16.82-6s26.22,0,26.22,0Z" fill="#042143"/><path d="M394.4,15.19c0,0-16.64,6.69-19.74,25.48c0,0,5.84-8.94,14.23-7.48s5.51-18,5.51-18Z" fill="#042143"/><path d="M484.21,107.9l.57-6.15c.764826-.711534,1.643715-1.289573,2.6-1.71c1.35-.66-2.13,8.63-2.13,8.63l-1.11-.17Z" fill="#0b2242"/><path d="M471.08,11.41c0,0-5.82-7.31-13.88-8.58c0,0,8,5.12,7.35,8.1" fill="#042143"/></g></g><g id="efsC3yK7Ndu96_tr" transform="translate(508.474155,298.614541) rotate(0)"><g transform="translate(-508.474153,-298.6145)"><path d="M310.14,359.12c-1.180096-.671992-1.972331-1.863051-2.135919-3.211175s.320791-2.694094,1.305919-3.628825c3.1-3.85,9.18-7.34,9.44-7.48.76-.5,19.33-12.74,28.39-14.21h.07.07c.11,0,10.38,1.4,29.14,6.8l10.14,2.91l5.09-.06v1l-5.23.06-10.29-3c-17.85-5.13-28-6.62-28.91-6.76-8.88,1.5-27.76,13.94-28,14.07s-6.21,3.56-9.19,7.26c-.797537.834765-1.175968,1.984752-1.03,3.13.223922.946684.808832,1.76843,1.63,2.29Z" fill="#e1c5b5"/><path d="M403.62,357.16h-1.58v0h-.67-.67l-15.38.42-29.72-.79c0,0-4,2.24-8.42,4.54v0c-1.78.93-3.62,1.87-5.29,2.68v0h-.05c-5.81,2.82-9.56,2.68-11,2.44l-.54-.13-.56-.16-.53-.16c1.11-1.18,3.13-3.15,5.31-5.16-1.19.79-2.43,1.6-3.63,2.37l-3.44,2.24-.6-.19-.61-.2c-1.74-.57-3.8-1.27-5.87-2l-.51-.19-.54-.2c1.63-1.61,4.92-4.51,8.15-7.19-3.13,2.24-7.19,5.09-9.64,6.63l-.59-.24-.57-.23c-2.019171-.754052-3.972499-1.673855-5.84-2.75-.16-.09-.3-.19-.43-.28-.135236-.09657-.265408-.20004-.39-.31l-.07-.06c-2.86-2.65-.24-5.73-.24-5.73c2.71-4.64,32.1-21.52,37.92-21.54s38.88,9.74,38.88,9.74l16.08-.3Z" fill="#f0dbcb"/><path d="M337.76,340.59c0,0-9.35,4.93-12.87,6.91-4.1,2.31-13.71,10.14-14.82,11.55-2.43,3.13,3.4,4.85,5.93,3.61s12.05-8.11,15.26-10.43c.65501-.475623,1.343462-.903399,2.06-1.28c2.74-1.43,9.27-5.59,10.81-5.95Z" fill="#f1daca"/><path d="M344.25,345.48c-2.281925,1.021571-4.484673,2.211523-6.59,3.56-1.59.94-3.1,1.82-4.11,2.35l-.13.08c-.648363.344777-1.273076.7323-1.87,1.16-.66.48-2.18,1.58-4,2.88l-.06.05c-3.13,2.24-7.19,5.09-9.64,6.63-.51677.334613-1.050846.641707-1.6.92-.719316.322693-1.501868.479887-2.29.46-1.641185.068641-3.238748-.538578-4.42-1.68-.773464-.931999-.703919-2.301169.16-3.15.103505-.125796.213662-.245967.33-.36c4.548934-4.183118,9.446721-7.970205,14.64-11.32c3.48-2,12.78-6.86,12.88-6.91.201636-.098644.444298-.050821.593429.116952s.168175.414368.046571.603048c-.047443.065976-.108917.120619-.18.16-.09.05-9.38,5-12.85,6.9-3.74,2.11-12.26,9-14.31,11-.126701.123651-.246864.253828-.36.39-.57.73-.63,1.35-.18,1.9c1,1.19,3.95,1.71,5.5.95.23-.11.52-.28.88-.49c3.61-2.16,13.13-9,14.3-9.9.675139-.485742,1.383547-.923484,2.12-1.31c1-.52,2.48-1.4,4.06-2.33c2.083356-1.309309,4.243964-2.491465,6.47-3.54.130701-.051049.26426-.094456.4-.13h.08c.234772-.032104.455521.11939.51.35v0c.049346.138031.035635.290764-.037507.417799s-.198345.215576-.342493.242201Z" fill="#e1c5b5"/><path d="M344.56,344.82c0,0-6.14,3.37-9.56,5.55-4,2.53-15.2,12.26-16.23,13.73-2.28,3.27,3.62,4.89,5.69,3c1.38-1.27,11.76-7.58,14.84-10.08.63506-.507233,1.303206-.971594,2-1.39c2.67-1.58,8.08-5.21,9.6-5.66Z" fill="#f1daca"/><path d="M351.4,349.93c.004856.023081.004856.046919,0,.07s0,.05,0,.06c-.005858.046752-.02302.091372-.05.13-.047287.077569-.112431.142713-.19.19v0h-.08c-2.258224,1.087929-4.431069,2.344836-6.5,3.76l-1.12.71c-.028565.027046-.062694.047523-.1.06l-1.8,1.09c-.679064.401557-1.3275.852788-1.94,1.35-.51.42-1.23.94-2.08,1.53v0c-.89.62-1.92,1.32-3,2s-2.43,1.6-3.63,2.37l-3.44,2.24c-1.3.87-2.3,1.56-2.65,1.88-.790547.672864-1.80228,1.029108-2.84,1-1.203273.02587-2.3789-.362475-3.33-1.1-.509494-.420007-.826132-1.029263-.877063-1.687591s.168232-1.309036.607063-1.802409c.308138-.376281.642292-.730484,1-1.06c1.63-1.61,4.92-4.51,8.15-7.19l.06-.05c2.05-1.71,4.06-3.31,5.61-4.46v0c.61-.44,1.15-.82,1.59-1.1c2.77-1.76,7.36-4.33,9-5.23l.38-.21.22-.12c.20648-.134176.480467-.09427.640095.09323s.155307.464343-.010095.64677c-.040175.053518-.091315.097839-.15.13-.06,0-6.17,3.39-9.53,5.53s-11.7,9.28-14.9,12.36c-.423611.390159-.821133.807725-1.19,1.25-.290171.29014-.443822.689642-.422856,1.099448s.214589.791541.532856,1.050552c1.1,1,3.69,1.22,4.84.16.675837-.546882,1.380157-1.057597,2.11-1.53c1.12-.75,2.56-1.69,4.11-2.69c3.29-2.14,7-4.56,8.64-5.88.650943-.521496,1.335782-.999213,2.05-1.43.8-.47,1.85-1.13,3-1.84c2.065232-1.387879,4.216194-2.64372,6.44-3.76l.19-.06v0h.1.14c.183227-.0005.352051.09926.44.26.003982.033214.003982.066786,0,.1-.005066.027042-.011744.053756-.02.08Z" fill="#e1c5b5"/><path d="M350.9,349.94c0,0-5.35,3-8.32,4.9-3.47,2.24-12.88,11.2-13.77,12.5-2,2.86,2.74,3.49,5,2.56c1.47-.61,7.72-5.44,11.72-7.22c1.413981-.689289,2.886444-1.251502,4.4-1.68c2.756133-.536325,5.552867-.837408,8.36-.9l27.45-1.5l13.85.71l2.84-3.31Z" fill="#f1daca"/><path d="M402.79,356.32l-.75.88v0l-2.24,2.62-14.09-.73-27.4,1.51c-2.790014.063769-5.569761.36148-8.31.89-1.412688.403901-2.787809.92919-4.11,1.57l-.17.07c-2.828697,1.446653-5.546157,3.101194-8.13,4.95-1.144314.839455-2.343675,1.601167-3.59,2.28-.7859.296933-1.619899.446103-2.46.44-1.209315.098925-2.405155-.31056-3.3-1.13-.33-.41-.75-1.29.17-2.62.250731-.329435.521228-.643345.81-.94c1.11-1.18,3.13-3.15,5.31-5.16.85-.79,1.73-1.59,2.59-2.35c1.643621-1.501399,3.38041-2.89751,5.2-4.18c2.65-1.71,7.21-4.29,8.17-4.82l.16-.09v0h.1.14c.183227-.0005.352051.09926.44.26.003982.033214.003982.066786,0,.1.004091.043237.004091.086763,0,.13.004856.023081.004856.046919,0,.07s0,.05,0,.06c-.005858.046752-.02302.091372-.05.13-.047287.077569-.112431.142713-.19.19v0c-.34.19-4.81,2.68-7.7,4.5-.028565.027046-.062694.047523-.1.06l-.47.31c-2.93,1.89-9.84,8.37-12.55,11.17-.385112.373129-.745855.770615-1.08,1.19-.63.91-.32,1.29-.22,1.42.66.8,3.11,1,4.61.39c1.177737-.656676,2.316323-1.38123,3.41-2.17c1.49-1,3.19-2.16,4.83-3.16v0c1.104838-.69738,2.253938-1.322036,3.44-1.87l.16-.07c.43-.19,1-.47,1.69-.74v0c.856849-.381812,1.74735-.683109,2.66-.9c2.784581-.550216,5.612118-.854721,8.45-.91l25.45-.94l15.62.14l1.34-1.56l1.13-1.32.21-.25c.179493-.209868.495132-.234493.705-.055s.234493.495132.055.705Z" fill="#e1c5b5"/><path d="M510,311.64l-.28.05c-.52589.388777-1.135486.649053-1.78.76L385.42,333.92v33h-1v-33.66v0v33.87h1c0,.552285-.447715,1-1,1s-1-.447715-1-1v-34.71l.82-.15L507.6,310.66c.627836-.114215,1.184336-.473766,1.546498-.999182s.500163-1.173432.383502-1.800818l-2-11.4l2.22,1l1.79,10.06c.259151,1.549794-.327832,3.120165-1.54,4.12Z" fill="#112e46"/><path d="M590.55,329c0,25.86-25.11,38.09-87.33,38.09h-117.81v-33L508,312.63c.769247-.135346,1.485839-.481526,2.07-1c1.18974-1.017188,1.749504-2.589861,1.47-4.13l-2-10.55l1.42.64Z" fill="url(#efsC3yK7Ndu106-fill)"/></g></g><path d="M486.6,368h-30.15c-1.553395.006779-2.85503-1.17337-3-2.72l-4.9-45.64c-.106602-.857534.16175-1.71939.736325-2.364829s1.399565-1.011772,2.263675-1.005171h39.94c.86411-.006601,1.6891.359731,2.263675,1.005171s.842927,1.507295.736325,2.364829l-4.9,45.64c-.144625,1.542801-1.440436,2.721599-2.99,2.72Z" fill="#042143"/><g id="efsC3yK7Ndu108_to" transform="translate(473.682389,286.290009)"><g id="efsC3yK7Ndu108" transform="translate(-473.682388,-286.290009)"><path d="M476.28,263.29c0,0-14.09,8.24-4.75,22.76s1.47,20.46,1.47,20.46s14.16-8.15,6.67-22.69c-3.17-6.08-7.78-8.82-3.39-20.53Z" opacity="0.71" fill="#d3e7ff"/><path d="M467.12,290.29c0,0,5.82,3.22,2.58,10s.51,9,.51,9-6.6-2.75-4.16-9.49c1.02-2.8,3.11-4.5,1.07-9.51Z" opacity="0.71" fill="#d3e7ff"/></g></g><g id="efsC3yK7Ndu111_tr" transform="translate(279.055954,24.87139) rotate(0)"><g transform="translate(-279.055954,-24.87139)"><path d="M277.31,38.58c0-1.38,0-2.77,0-4.15-.005708-.943931.746303-1.718192,1.69-1.74.842124-.001508,1.567318.593737,1.73,1.42c0,.11,0,.22,0,.33q0,4.25,0,8.49c-.037232.931362-.797947,1.670091-1.73,1.68-.928366-.015856-1.678667-.761743-1.7-1.69c0-1.45,0-2.9,0-4.34Z" fill="#d3e7ff"/><path d="M277.32,11.25c0-1.42,0-2.85,0-4.27.030727-.916488.763711-1.653835,1.68-1.69.457899-.005332.899022.172152,1.225631.49313s.511738.758947.514369,1.21687c0,1.5,0,3,0,4.5c0,1.31,0,2.61,0,3.92.03866.944407-.695593,1.74134-1.64,1.78s-1.74134-.695593-1.78-1.64c0-1.42,0-2.85,0-4.28Z" transform="translate(0-.157103)" fill="#d3e7ff"/><path d="M274,18.2c.070658.699-.340723,1.357209-1,1.6-.613144.300864-1.349119.184868-1.84-.29-.85-.82-1.68-1.66-2.52-2.5l-3.38-3.37c-.303032-.285027-.521109-.648488-.63-1.05-.154304-.819522.294528-1.633292,1.07-1.94.637721-.257579,1.368416-.089878,1.83.42q2.08,2.05,4.15,4.13l1.69,1.7c.403534.309511.637107.791486.63,1.3Z" fill="#d3e7ff"/><path d="M285.77,19.93c-.673146.029325-1.297975-.348741-1.584344-.958641s-.178174-1.332146.274344-1.831359c1-1,2-2,2.93-3s2-2,3-2.94c.238642-.242286.524566-.432902.84-.56.755147-.309791,1.621968.006599,2,.73.388651.639428.298351,1.460342-.22,2-.76.81-1.55,1.58-2.34,2.36-1.17,1.18-2.36,2.36-3.54,3.54-.328146.416903-.829446.66018-1.36.66Z" transform="translate(0-.157103)" fill="#d3e7ff"/><path d="M272.26,30c.700029-.064725,1.357751.343799,1.61,1c.294976.600804.187478,1.321441-.27,1.81-1,1-2,2-2.93,3s-2,2-3,3c-.264824.24312-.569192.439269-.9.58-.579605.223701-1.23718.064289-1.65-.4-.468624-.38734-.661356-1.016667-.49-1.6.081301-.352527.265821-.672826.53-.92L271,30.53c.322058-.352747.782632-.546481,1.26-.53Z" fill="#d3e7ff"/><path d="M265.29,26.66c-1.4,0-2.79,0-4.18,0-.610924.014291-1.183065-.298428-1.500903-.820359s-.333087-1.173779-.04-1.71.849979-.87535,1.460903-.889641h8.56c.460031-.006848.901783.179856,1.217463.514552s.476253.786603.442537,1.245448c.019414.446905-.146828.881947-.459325,1.20202s-.743433.496685-1.190675.48798c-1.44,0-2.88,0-4.31,0Z" fill="#d3e7ff"/><path d="M292.76,26.66c-1.41,0-2.81,0-4.22,0-.937051.06416-1.750454-.639475-1.821861-1.576002s.625915-1.755348,1.561861-1.833998h8.72c.477389-.008987.937031.180873,1.268918.52414s.506151.809045.481082,1.28586c-.073401.909773-.837308,1.608202-1.75,1.6-1.21,0-2.43,0-3.65,0Z" fill="#d3e7ff"/><path d="M285.72,29.9c.533772.036169,1.030802.284684,1.38.69l3.61,3.61l2.12,2.11c.524406.459272.728329,1.18477.52,1.85-.236387.752426-.96435,1.239121-1.75,1.17-.479948-.077027-.920135-.312968-1.25-.67L286,34.29c-.5-.5-1-1-1.51-1.52-.325508-.37041-.473-.864512-.403802-1.352744s.348184-.921888.763802-1.187256c.282244-.129451.572905-.239701.87-.33Z" fill="#d3e7ff"/></g></g></g></g><g transform="translate(0 32.979997)"><rect width="27.62" height="19.42" rx="3.46" ry="3.46" transform="translate(227.99 131.81)" fill="#d3e7ff"/><rect id="efsC3yK7Ndu122" width="19.74" height="2.88" rx="0.84" ry="0.84" transform="translate(231.93 135.42)" opacity="0" fill="#eef4fb"/><rect id="efsC3yK7Ndu123" width="19.74" height="2.88" rx="0.84" ry="0.84" transform="translate(231.82 140.08)" fill="#eef4fb"/><rect id="efsC3yK7Ndu124" width="13.12" height="2.88" rx="0.84" ry="0.84" transform="translate(231.82 144.74)" opacity="0" fill="#eef4fb"/></g><g transform="translate(42.849164 32.979997)"><rect width="27.62" height="19.42" rx="3.46" ry="3.46" transform="translate(227.99 131.81)" fill="#d3e7ff"/><rect id="efsC3yK7Ndu127" width="19.74" height="2.88" rx="0.84" ry="0.84" transform="translate(231.93 135.42)" opacity="0" fill="#eef4fb"/><rect id="efsC3yK7Ndu128" width="19.74" height="2.88" rx="0.84" ry="0.84" transform="translate(231.82 140.08)" fill="#eef4fb"/><rect id="efsC3yK7Ndu129" width="13.12" height="2.88" rx="0.84" ry="0.84" transform="translate(231.82 144.74)" opacity="0" fill="#eef4fb"/></g><g transform="translate(-42.985001 32.979997)"><rect width="27.62" height="19.42" rx="3.46" ry="3.46" transform="translate(227.99 131.81)" fill="#d3e7ff"/><rect id="efsC3yK7Ndu132" width="19.74" height="2.88" rx="0.84" ry="0.84" transform="translate(231.93 135.42)" opacity="0" fill="#eef4fb"/><rect id="efsC3yK7Ndu133" width="19.74" height="2.88" rx="0.84" ry="0.84" transform="translate(231.82 140.08)" fill="#eef4fb"/><rect id="efsC3yK7Ndu134" width="13.12" height="2.88" rx="0.84" ry="0.84" transform="translate(231.82 144.74)" opacity="0" fill="#eef4fb"/></g></svg>
